<?xml version="1.0" encoding="utf-8"?>
<!-- Generator: Adobe Illustrator 16.0.0, SVG Export Plug-In . SVG Version: 6.00 Build 0)  -->
<!DOCTYPE svg PUBLIC "-//W3C//DTD SVG 1.1//EN" "http://www.w3.org/Graphics/SVG/1.1/DTD/svg11.dtd">
<svg version="1.1" id="Capa_1" xmlns="http://www.w3.org/2000/svg" xmlns:xlink="http://www.w3.org/1999/xlink" x="0px" y="0px"
	 width="56px" height="198px" viewBox="0 0 56 198" enable-background="new 0 0 56 198" xml:space="preserve">
<g>
	<g>
		<path fill="#333333" d="M27.546,21.98c2.873,0.226,5.82-0.544,7.902-2.646c2.338-2.444,3.245-6.278,1.974-9.451
			c-0.438-1.101-1.109-2.095-1.943-2.927c-3.43-3.429-8.992-3.44-12.432-0.003c-3.438,3.438-3.437,8.992,0.003,12.433
			c0.148,0.148,0.311,0.288,0.459,0.416l0.004,20.676l-12.024-0.001c-1.324-0.002-2.413,1.088-2.413,2.412l0.012,4.753
			c0,1.324,1.09,2.414,2.414,2.413l35.574-0.003c1.324,0.001,2.414-1.089,2.412-2.412v-4.766c0-1.323-1.09-2.413-2.414-2.413
			l-12.025-0.003l-0.004-16.959c-0.021,0-0.031,0.012-0.053,0.012c-0.184,0.031-0.374,0.073-0.557,0.105
			c-0.748,0.106-1.463,0.159-2.146,0.14c-1.196-0.045-2.438-0.236-3.577-0.652c-0.78-0.246-1.549-0.588-2.265-0.983
			c-0.515-0.276-0.791-0.47-0.791-0.47s0.32,0.086,0.887,0.182C26.873,21.905,27.215,21.948,27.546,21.98z"/>
		<path fill="#CCCCCC" d="M52.887,161.593c0.906-1.483,1.279-3.247,1.045-4.978L40.145,56.873l-7.688-0.001l-3.035,94.942
			l-3.073-94.943l-7.945-0.002l-14.292,99.66c-0.257,1.773,0.128,3.568,1.079,5.096l22.179,35.313
			c0.907,1.422,2.979,1.422,3.866-0.021L52.887,161.593z"/>
	</g>
</g>
</svg>
