<?xml version="1.0" encoding="utf-8"?>
<!-- Generator: Adobe Illustrator 16.0.0, SVG Export Plug-In . SVG Version: 6.00 Build 0)  -->
<!DOCTYPE svg PUBLIC "-//W3C//DTD SVG 1.1//EN" "http://www.w3.org/Graphics/SVG/1.1/DTD/svg11.dtd">
<svg version="1.1" id="Capa_1" xmlns="http://www.w3.org/2000/svg" xmlns:xlink="http://www.w3.org/1999/xlink" x="0px" y="0px"
	 width="25px" height="92px" viewBox="15.5 53 25 92" enable-background="new 15.5 53 25 92" xml:space="preserve">
<g>
	<g>
		<path fill="#333333" d="M27.313,62.064c1.34,0.105,2.715-0.254,3.686-1.232c1.09-1.139,1.514-2.928,0.92-4.407
			c-0.203-0.514-0.518-0.977-0.906-1.364c-1.599-1.6-4.191-1.604-5.795,0c-1.604,1.603-1.604,4.191,0.002,5.797
			c0.068,0.067,0.145,0.134,0.213,0.193l0.002,9.641h-5.606c-0.617-0.002-1.125,0.507-1.125,1.123l0.006,2.218
			c0,0.616,0.508,1.126,1.125,1.125l16.588-0.001c0.618,0,1.127-0.508,1.126-1.125l-0.001-2.223c0-0.617-0.508-1.125-1.125-1.125
			l-5.606-0.002l-0.002-7.908c-0.011,0-0.016,0.007-0.024,0.007c-0.085,0.015-0.175,0.034-0.261,0.049
			c-0.348,0.049-0.682,0.073-1,0.065c-0.559-0.021-1.137-0.11-1.668-0.305c-0.364-0.115-0.723-0.273-1.057-0.458
			c-0.24-0.129-0.367-0.22-0.367-0.22s0.147,0.04,0.412,0.085C26.999,62.03,27.159,62.05,27.313,62.064z"/>
		<path fill="#CCCCCC" d="M39.129,127.164c0.422-0.691,0.598-1.514,0.488-2.321l-6.43-46.508h-3.584l-1.416,44.271l-1.434-44.271
			l-3.704-0.001l-6.663,46.47c-0.119,0.827,0.061,1.664,0.504,2.377l10.34,16.467c0.424,0.662,1.391,0.662,1.804-0.011
			L39.129,127.164z"/>
	</g>
</g>
</svg>
