<?xml version="1.0" encoding="utf-8"?>
<!-- Generator: Adobe Illustrator 16.0.0, SVG Export Plug-In . SVG Version: 6.00 Build 0)  -->
<!DOCTYPE svg PUBLIC "-//W3C//DTD SVG 1.1//EN" "http://www.w3.org/Graphics/SVG/1.1/DTD/svg11.dtd">
<svg version="1.1" id="Capa_1" xmlns="http://www.w3.org/2000/svg" xmlns:xlink="http://www.w3.org/1999/xlink" x="0px" y="0px"
	 width="56px" height="198px" viewBox="0 0 56 198" enable-background="new 0 0 56 198" xml:space="preserve">
<g>
	<g>
		<path fill="#333333" d="M30.488,180.398c-2.873-0.226-5.82,0.545-7.902,2.646c-2.338,2.443-3.245,6.278-1.974,9.451
			c0.438,1.102,1.11,2.095,1.944,2.927c3.429,3.429,8.991,3.44,12.43,0.003c3.438-3.438,3.437-8.992-0.004-12.433
			c-0.147-0.147-0.311-0.288-0.459-0.416L34.52,161.9l12.024,0.002c1.324,0.002,2.413-1.088,2.413-2.412l-0.012-4.754
			c0-1.323-1.09-2.413-2.414-2.412l-35.574,0.003c-1.324-0.001-2.414,1.089-2.413,2.412l0.001,4.766c0,1.323,1.09,2.413,2.414,2.413
			l12.025,0.003l0.004,16.959c0.021,0,0.032-0.012,0.053-0.012c0.183-0.031,0.374-0.073,0.557-0.104
			c0.748-0.106,1.463-0.16,2.146-0.141c1.196,0.045,2.436,0.236,3.576,0.652c0.781,0.246,1.55,0.588,2.266,0.982
			c0.516,0.276,0.791,0.471,0.791,0.471s-0.32-0.086-0.887-0.183C31.161,180.475,30.818,180.432,30.488,180.398z"/>
		<path fill="#CCCCCC" d="M5.149,40.787c-0.907,1.484-1.28,3.247-1.046,4.978l13.787,99.742l7.688,0.001l3.035-94.942l3.072,94.943
			l7.945,0.002l14.29-99.661c0.257-1.773-0.128-3.567-1.079-5.095L30.664,5.442c-0.907-1.421-2.979-1.421-3.866,0.021L5.149,40.787z
			"/>
	</g>
</g>
</svg>
