<?xml version="1.0" encoding="utf-8"?>
<!-- Generator: Adobe Illustrator 16.0.0, SVG Export Plug-In . SVG Version: 6.00 Build 0)  -->
<!DOCTYPE svg PUBLIC "-//W3C//DTD SVG 1.1//EN" "http://www.w3.org/Graphics/SVG/1.1/DTD/svg11.dtd">
<svg version="1.1" id="Capa_1" xmlns="http://www.w3.org/2000/svg" xmlns:xlink="http://www.w3.org/1999/xlink" x="0px" y="0px"
	 width="25px" height="92px" viewBox="15.5 55.188 25 92" enable-background="new 15.5 55.188 25 92" xml:space="preserve">
<g>
	<g>
		<path fill="#333333" d="M28.688,138.123c-1.34-0.105-2.715,0.254-3.686,1.232c-1.09,1.14-1.514,2.929-0.92,4.408
			c0.204,0.514,0.518,0.977,0.906,1.363c1.599,1.6,4.193,1.604,5.795,0.001c1.604-1.603,1.604-4.192-0.002-5.797
			c-0.068-0.067-0.145-0.134-0.213-0.194l-0.002-9.641l5.606,0.001c0.617,0.001,1.125-0.507,1.125-1.124l-0.006-2.217
			c0-0.617-0.508-1.126-1.125-1.125l-16.588,0.001c-0.618,0-1.126,0.508-1.125,1.125v2.223c0,0.616,0.508,1.125,1.126,1.125
			l5.607,0.001v7.908c0.011,0,0.016-0.006,0.025-0.006c0.085-0.016,0.174-0.034,0.26-0.049c0.35-0.049,0.682-0.074,1.002-0.065
			c0.558,0.021,1.135,0.11,1.666,0.304c0.365,0.115,0.723,0.274,1.058,0.459c0.241,0.129,0.368,0.219,0.368,0.219
			s-0.148-0.039-0.414-0.084C29.001,138.158,28.841,138.139,28.688,138.123z"/>
		<path fill="#CCCCCC" d="M16.871,73.023c-0.422,0.692-0.598,1.515-0.488,2.321l6.43,46.509h3.584l1.416-44.271l1.434,44.271
			l3.704,0.002l6.663-46.471c0.119-0.826-0.061-1.664-0.504-2.376L28.77,56.543c-0.424-0.663-1.39-0.663-1.804,0.01L16.871,73.023z"
			/>
	</g>
</g>
</svg>
