<?xml version="1.0" encoding="utf-8"?>
<!-- Generator: Adobe Illustrator 16.0.0, SVG Export Plug-In . SVG Version: 6.00 Build 0)  -->
<!DOCTYPE svg PUBLIC "-//W3C//DTD SVG 1.1//EN" "http://www.w3.org/Graphics/SVG/1.1/DTD/svg11.dtd">
<svg version="1.1" id="Capa_1" xmlns="http://www.w3.org/2000/svg" xmlns:xlink="http://www.w3.org/1999/xlink" x="0px" y="0px"
	 width="50px" height="50px" viewBox="-10 -5 50 50" enable-background="new -10 -5 50 50" xml:space="preserve">
<g>
	<g>
		<path fill="#EBEBEB" d="M13.071,3.897c0.889-1.113,1.286-2.507,1.125-3.922C13.887-2.717,11.615-4.75,8.907-4.75
			c-3.194,0-5.665,2.781-5.306,5.936C4.148,5.937,10.154,7.574,13.071,3.897z"/>
		<path fill="#EBEBEB" d="M37.021,40.254c-0.238-0.492-14.771-27.958-16.384-30.77c3.541-0.923,6.6,0.349,9.009,3.724
			c2.576,3.598,6.594,0.255,3.972-3.408c-4.373-6.125-13.029-8.874-19.802-4.855C10.843,6.712,8.431,8.06,5.103,8.06
			c-6.961,0-6.892-5.358-10.129-5.358c-1.949,0-3.333,2.265-1.574,4.725c4.658,6.525,10.946,8.491,17.097,6.739
			c1.809,3.121,3.575,6.348,5.394,9.856L8.6,29.048c-2.359,2.063-0.492,4.954,1.022,5.863c1.826,1.098,4.152,2.245,6.416,3.363
			c4.797,2.366,5.046,2.653,6.329,2.752c2.626,0.201,4.374-3.723,1.272-5.583c-1.939-1.167-4.596-2.912-6.611-4.148
			c1.787-1.144,5.971-2.891,6.173-3.005c2.645,4.487,4.525,7.754,5.912,10.131c-0.008,0.003-0.016,0.006-0.023,0.008
			c0.006,0.012,0.013,0.021,0.019,0.032c2.721,4.606,2.771,4.983,3.792,5.767C34.987,45.836,38.598,43.509,37.021,40.254z"/>
	</g>
</g>
</svg>
