<?xml version="1.0" encoding="utf-8"?>
<!-- Generator: Adobe Illustrator 16.0.0, SVG Export Plug-In . SVG Version: 6.00 Build 0)  -->
<!DOCTYPE svg PUBLIC "-//W3C//DTD SVG 1.1//EN" "http://www.w3.org/Graphics/SVG/1.1/DTD/svg11.dtd">
<svg version="1.1" id="Capa_1" xmlns="http://www.w3.org/2000/svg" xmlns:xlink="http://www.w3.org/1999/xlink" x="0px" y="0px"
	 width="50px" height="50px" viewBox="263.787 263.787 50 50" enable-background="new 263.787 263.787 50 50" xml:space="preserve">
<g>
	<g id="Layer_1_72_">
		<path fill="#EBEBEB" d="M313.671,287.14c0-1.758-1.429-3.186-3.187-3.186l0,0v-3.955c0-1.758-1.428-3.186-3.186-3.186h-5.493
			c-1.758,0-3.186,1.428-3.186,3.186v6.592h-19.666v-6.592c0-1.758-1.428-3.186-3.186-3.186h-5.493
			c-1.758,0-3.186,1.428-3.186,3.186v3.845l0,0c-1.757,0-3.186,1.428-3.186,3.186v3.296c0,1.758,1.428,3.186,3.186,3.186l0,0v4.065
			c0,1.758,1.428,3.186,3.186,3.186h5.493c1.758,0,3.186-1.428,3.186-3.186v-6.592h19.555v6.592c0,1.758,1.428,3.186,3.186,3.186
			h5.493c1.758,0,3.187-1.428,3.187-3.186v-3.846l0,0c1.758,0,3.186-1.428,3.186-3.186v-3.406H313.671z"/>
	</g>
</g>
</svg>
