<?xml version="1.0" encoding="utf-8"?>
<!-- Generator: Adobe Illustrator 16.0.0, SVG Export Plug-In . SVG Version: 6.00 Build 0)  -->
<!DOCTYPE svg PUBLIC "-//W3C//DTD SVG 1.1//EN" "http://www.w3.org/Graphics/SVG/1.1/DTD/svg11.dtd">
<svg version="1.1" id="Capa_1" xmlns="http://www.w3.org/2000/svg" xmlns:xlink="http://www.w3.org/1999/xlink" x="0px" y="0px"
	 width="50px" height="50px" viewBox="223.389 223.389 50 50" enable-background="new 223.389 223.389 50 50" xml:space="preserve">
<g>
	<path fill="#EBEBEB" d="M273.131,273.105l-1.315-3.703l-11.445-11.445c0.864-1.471,1.615-3.066,2.245-4.78
		c1.635-4.448,2.464-9.708,2.464-15.632v-1.525h-1.525c-0.109,0-0.218-0.002-0.325-0.004l3.476-3.477
		c0.117,0.089,0.229,0.187,0.336,0.294c1.033,1.033,1.244,2.577,0.637,3.82c1.229,0.567,2.735,0.344,3.75-0.67
		c1.014-1.014,1.236-2.519,0.669-3.75c-1.243,0.608-2.786,0.397-3.819-0.636c-0.107-0.107-0.204-0.219-0.294-0.335l2.715-2.715
		c0.767,0.532,2.103,0.059,2.339-0.177c0.366-0.366-0.367-1.692-1.639-2.962c-1.271-1.271-2.596-2.004-2.963-1.639
		c-0.235,0.237-0.709,1.573-0.177,2.339l-2.715,2.714c-0.116-0.089-0.229-0.188-0.335-0.293c-1.033-1.034-1.246-2.577-0.637-3.82
		c-1.229-0.567-2.735-0.344-3.75,0.67c-1.014,1.014-1.237,2.52-0.67,3.75c1.243-0.609,2.786-0.397,3.819,0.636
		c0.106,0.107,0.205,0.219,0.294,0.335l-5.338,5.339c-7.258-1.895-10.539-7.773-10.539-7.773s-3.207,5.896-10.529,7.781
		l-5.347-5.347c0.089-0.116,0.187-0.229,0.294-0.335c1.033-1.033,2.576-1.245,3.819-0.636c0.567-1.231,0.345-2.736-0.669-3.75
		c-1.014-1.014-2.52-1.237-3.75-0.67c0.609,1.243,0.398,2.786-0.636,3.82c-0.106,0.106-0.219,0.204-0.336,0.293l-2.714-2.714
		c0.532-0.766,0.059-2.103-0.178-2.339c-0.366-0.366-1.692,0.368-2.962,1.638c-1.271,1.27-2.004,2.597-1.638,2.963
		c0.237,0.236,1.573,0.709,2.339,0.177l2.714,2.715c-0.089,0.117-0.187,0.228-0.293,0.335c-1.034,1.033-2.577,1.245-3.82,0.636
		c-0.567,1.23-0.344,2.735,0.67,3.75c1.014,1.014,2.52,1.237,3.75,0.67c-0.608-1.243-0.397-2.787,0.636-3.82
		c0.106-0.107,0.219-0.205,0.335-0.294l3.477,3.477c-0.108,0.002-0.216,0.004-0.326,0.004h-1.524v1.525
		c0,5.924,0.829,11.185,2.463,15.632c0.63,1.714,1.381,3.31,2.245,4.78l-11.444,11.445l-1.315,3.703l3.754-1.264l10.984-10.984
		c0.418,0.528,0.855,1.035,1.31,1.518c4.062,4.309,8.177,5.295,8.35,5.335l0.342,0.079l0.342-0.079
		c0.172-0.04,4.289-1.027,8.349-5.335c0.456-0.482,0.892-0.989,1.31-1.518l10.986,10.984L273.131,273.105z M254.862,260.283
		c-2.748,2.915-5.514,4.031-6.474,4.351c-0.96-0.319-3.726-1.436-6.474-4.351c-2.059-2.185-3.705-4.93-4.891-8.158
		c-1.376-3.743-2.133-8.147-2.258-13.107c6.668-0.446,11.1-3.732,13.639-6.4c2.555,2.661,6.999,5.948,13.606,6.399
		c-0.125,4.96-0.882,9.365-2.258,13.108C258.567,255.353,256.922,258.098,254.862,260.283z"/>
</g>
</svg>
