<?xml version="1.0" encoding="UTF-8" standalone="no"?>
<svg width="264px" height="304px" viewBox="0 0 264 304" version="1.1" xmlns="http://www.w3.org/2000/svg" xmlns:xlink="http://www.w3.org/1999/xlink" xmlns:sketch="http://www.bohemiancoding.com/sketch/ns">
    <!-- Generator: Sketch 3.1.1 (8761) - http://www.bohemiancoding.com/sketch -->
    <title>LOGO</title>
    <desc>Created with Sketch.</desc>
    <defs></defs>
    <g id="Wireframe" stroke="none" stroke-width="1" fill="none" fill-rule="evenodd" sketch:type="MSPage">
        <g id="Home" sketch:type="MSArtboardGroup" transform="translate(-508.000000, -38.000000)">
            <g id="Banner" sketch:type="MSLayerGroup" transform="translate(-133.000000, 0.000000)">
                <g id="LOGO" transform="translate(641.000000, 38.000000)" sketch:type="MSShapeGroup">
                    <path d="M0.375469761,76.0195 L131.999658,0.026 L263.62453,76.0195 L263.62453,228.0065 L131.999658,304 L0.375469761,228.0065 L0.375469761,76.0195 L0.375469761,76.0195 Z" id="Fill-1" opacity="0.19478778" fill="#FFFFFF"></path>
                    <g id="CastleRaiders1" transform="translate(20.000000, 83.000000)">
                        <path d="M37.2003749,52.0137615 L2.6031865,52.0137615 C1.15463918,52.0137615 0,50.8321101 0,49.3972477 C0,47.9412844 1.17563261,46.7807339 2.6031865,46.7807339 L37.2003749,46.7807339 L37.2003749,52.0137615 L37.2003749,52.0137615 Z" id="Shape" fill="#EF4545"></path>
                        <path d="M196.141706,67.8816514 L36.633552,67.8816514 L36.633552,28.5073394 L205.294845,28.5073394 L223.853046,28.5073394 L196.141706,67.8816514 Z" id="Shape" fill="#353535"></path>
                        <path d="M145.526523,28.5073394 L68.9844424,28.5073394 L37.2003749,28.5073394 L37.2003749,10.8669725 L17.3825679,10.8669725 C17.3825679,10.8669725 25.2761012,19.2440367 29.0339269,28.5073394 C32.2249297,36.3990826 31.3641987,44.9027523 31.3641987,49.3761468 C31.3641987,53.8495413 32.2249297,62.353211 29.0339269,70.2449541 C25.2970947,79.487156 17.3825679,87.8853211 17.3825679,87.8853211 L37.2003749,87.8853211 L37.2003749,49.3972477 L37.2003749,48.553211 L101.104405,48.553211 L196.456607,48.8697248 L224.020993,28.5284404 L145.526523,28.5284404 L145.526523,28.5073394 Z M30.8183693,21.4385321 C28.6980319,21.4385321 26.9765698,19.7082569 26.9765698,17.5770642 C26.9765698,15.4458716 28.6980319,13.7155963 30.8183693,13.7155963 C32.9387067,13.7155963 34.6601687,15.4458716 34.6601687,17.5770642 C34.6601687,19.7082569 32.9387067,21.4385321 30.8183693,21.4385321 L30.8183693,21.4385321 Z M31.0283037,85.4376147 C28.9079663,85.4376147 27.1865042,83.7073394 27.1865042,81.5761468 C27.1865042,79.4449541 28.9079663,77.7146789 31.0283037,77.7146789 C33.148641,77.7146789 34.8701031,79.4449541 34.8701031,81.5761468 C34.8701031,83.7073394 33.148641,85.4376147 31.0283037,85.4376147 L31.0283037,85.4376147 Z" id="Shape" fill="#242424"></path>
                        <g id="Group" transform="translate(69.908154, 0.000000)">
                            <path d="M0,23.7807339 L40.979194,0 L81.9373946,23.7807339 L81.9373946,71.3211009 L40.979194,95.0807339 L0,71.3211009 L0,23.7807339 Z" id="Shape" fill="#242424"></path>
                            <path d="M0,23.7807339 L40.979194,0 L81.9373946,23.7807339 L81.9373946,71.3211009 L40.979194,95.0807339 L0,71.3211009 L0,23.7807339 Z" id="Shape" stroke="#EF4545" stroke-width="3"></path>
                        </g>
                        <g id="Group" transform="translate(18.474227, 111.834862)">
                            <g transform="translate(53.323336, 21.311927)" id="Shape" fill="#EF4545">
                                <path d="M2.30927835,0.168807339 C2.77113402,0.168807339 3.14901593,0.274311927 3.44292409,0.485321101 C3.73683224,0.696330275 3.88378632,1.01284404 3.88378632,1.41376147 C3.88378632,1.85688073 3.67385192,2.1733945 3.27497657,2.34220183 C3.54789128,2.44770642 3.75782568,2.61651376 3.88378632,2.86972477 C4.00974695,3.12293578 4.05173383,3.39724771 3.98875351,3.67155963 C3.86279288,4.38899083 3.29597001,4.74770642 2.33027179,4.74770642 L0.0419868791,4.74770642 L0.0419868791,0.168807339 L2.30927835,0.168807339 L2.30927835,0.168807339 Z M1.07066542,1.9412844 L2.30927835,1.9412844 C2.7081537,1.9412844 2.89709466,1.79357798 2.89709466,1.51926606 C2.89709466,1.37155963 2.85510778,1.26605505 2.75014058,1.18165138 C2.64517338,1.09724771 2.49821931,1.05504587 2.33027179,1.05504587 L1.07066542,1.05504587 L1.07066542,1.9412844 L1.07066542,1.9412844 Z M1.07066542,3.86146789 L2.33027179,3.86146789 C2.77113402,3.86146789 3.00206186,3.69266055 3.00206186,3.33394495 C3.00206186,3.16513761 2.93908154,3.03853211 2.83411434,2.93302752 C2.7081537,2.82752294 2.54020619,2.7853211 2.33027179,2.7853211 L1.09165886,2.7853211 L1.09165886,3.86146789 L1.07066542,3.86146789 Z"></path>
                                <path d="M6.65492034,1.98348624 L7.80955951,0.168807339 L8.98519213,0.168807339 L8.98519213,0.211009174 L7.15876289,2.93302752 L7.15876289,4.74770642 L6.15107779,4.74770642 L6.15107779,2.93302752 L4.40862231,0.211009174 L4.40862231,0.168807339 L5.58425492,0.168807339 L6.65492034,1.98348624 L6.65492034,1.98348624 Z"></path>
                                <path d="M12.3441425,3.46055046 L12.3441425,4.76880734 L11.3364574,4.76880734 L11.3364574,0.189908257 L13.4987816,0.189908257 C14.0656045,0.189908257 14.4854733,0.337614679 14.8003749,0.65412844 C15.094283,0.970642202 15.2622306,1.35045872 15.2622306,1.83577982 C15.2622306,2.32110092 15.1152765,2.70091743 14.8003749,3.01743119 C14.5064667,3.31284404 14.0656045,3.48165138 13.4987816,3.48165138 L12.3441425,3.48165138 L12.3441425,3.46055046 Z M12.3441425,2.51100917 L13.4777882,2.51100917 C13.708716,2.51100917 13.897657,2.44770642 14.0236176,2.32110092 C14.1495783,2.19449541 14.2125586,2.02568807 14.2125586,1.83577982 C14.2125586,1.64587156 14.1495783,1.47706422 14.0236176,1.35045872 C13.897657,1.22385321 13.708716,1.16055046 13.4777882,1.16055046 L12.3441425,1.16055046 L12.3441425,2.51100917 L12.3441425,2.51100917 Z"></path>
                                <path d="M19.2299906,4.76880734 L19.2299906,2.95412844 L17.193627,2.95412844 L17.193627,4.76880734 L16.1859419,4.76880734 L16.1859419,0.189908257 L17.193627,0.189908257 L17.193627,2.02568807 L19.2299906,2.02568807 L19.2299906,0.189908257 L20.2376757,0.189908257 L20.2376757,4.76880734 L19.2299906,4.76880734 L19.2299906,4.76880734 Z"></path>
                                <path d="M24.7932521,3.96697248 L22.4419869,3.96697248 L22.1060918,4.74770642 L21.014433,4.74770642 L23.0717901,0.168807339 L24.1844424,0.168807339 L26.2417994,4.74770642 L25.1291471,4.74770642 L24.7932521,3.96697248 L24.7932521,3.96697248 Z M23.6176195,1.20275229 L22.8198688,3.05963303 L24.3943768,3.05963303 L23.6176195,1.20275229 L23.6176195,1.20275229 Z"></path>
                                <path d="M30.1675726,3.1440367 L30.1045923,1.70917431 L30.1045923,0.168807339 L31.1332709,0.168807339 L31.1332709,4.74770642 L30.2515464,4.74770642 L27.9842549,1.8146789 L28.0262418,3.31284404 L28.0262418,4.74770642 L26.9975633,4.74770642 L26.9975633,0.168807339 L27.8792877,0.168807339 L30.1675726,3.1440367 L30.1675726,3.1440367 Z"></path>
                                <path d="M33.4215558,1.07614679 L32.0359888,1.07614679 L32.0359888,0.168807339 L35.8148079,0.168807339 L35.8148079,1.07614679 L34.4292409,1.07614679 L34.4292409,4.74770642 L33.4215558,4.74770642 L33.4215558,1.07614679 L33.4215558,1.07614679 Z"></path>
                                <path d="M40.6642924,4.22018349 C40.2024367,4.64220183 39.6146204,4.87431193 38.87985,4.87431193 C38.1450797,4.87431193 37.5362699,4.66330275 37.0954077,4.22018349 C36.633552,3.77706422 36.4236176,3.20733945 36.4236176,2.46880734 C36.4236176,1.73027523 36.6545455,1.13944954 37.0954077,0.717431193 C37.5572634,0.274311927 38.1450797,0.0633027523 38.87985,0.0633027523 C39.6146204,0.0633027523 40.2234302,0.274311927 40.6642924,0.717431193 C41.1261481,1.13944954 41.3360825,1.73027523 41.3360825,2.46880734 C41.3360825,3.20733945 41.1261481,3.77706422 40.6642924,4.22018349 L40.6642924,4.22018349 Z M39.929522,1.39266055 C39.6566073,1.11834862 39.2997188,0.970642202 38.87985,0.970642202 C38.4389878,0.970642202 38.1030928,1.11834862 37.8301781,1.39266055 C37.5572634,1.66697248 37.4103093,2.02568807 37.4103093,2.44770642 C37.4103093,2.86972477 37.5572634,3.22844037 37.8301781,3.50275229 C38.1030928,3.77706422 38.4599813,3.92477064 38.87985,3.92477064 C39.3207123,3.92477064 39.6776007,3.77706422 39.9505155,3.50275229 C40.2234302,3.22844037 40.3493908,2.86972477 40.3493908,2.44770642 C40.3493908,2.02568807 40.2024367,1.66697248 39.929522,1.39266055 L39.929522,1.39266055 Z"></path>
                                <path d="M46.3535145,1.56146789 L44.9469541,3.33394495 L44.7580131,3.33394495 L43.3934396,1.54036697 L43.3934396,4.74770642 L42.3857545,4.74770642 L42.3857545,0.168807339 L43.5613871,0.168807339 L44.8839738,1.9412844 L46.2275539,0.168807339 L47.3821931,0.168807339 L47.3821931,4.74770642 L46.374508,4.74770642 L46.374508,1.56146789 L46.3535145,1.56146789 Z"></path>
                                <path d="M53.7641987,1.37155963 C53.491284,1.09724771 53.1343955,0.970642202 52.6935333,0.970642202 C52.252671,0.970642202 51.8957826,1.09724771 51.6438613,1.35045872 C51.39194,1.60366972 51.2659794,1.98348624 51.2659794,2.46880734 C51.2659794,2.63761468 51.2869728,2.80642202 51.3499531,2.97522936 C51.4129335,3.1440367 51.4759138,3.29174312 51.580881,3.43944954 C51.6858482,3.58715596 51.8328022,3.71376147 52.0217432,3.79816514 C52.2106842,3.88256881 52.441612,3.92477064 52.6935333,3.92477064 C53.0504217,3.92477064 53.3863168,3.81926606 53.6592315,3.60825688 L53.6592315,2.86972477 L52.5675726,2.86972477 L52.5675726,2.02568807 L54.540956,2.02568807 L54.540956,4.03027523 C54.1420806,4.6 53.5332709,4.87431193 52.6725398,4.87431193 C52.252671,4.87431193 51.8747891,4.81100917 51.5598875,4.66330275 C51.2449859,4.51559633 50.9930647,4.34678899 50.8041237,4.1146789 C50.6151828,3.88256881 50.4892221,3.6293578 50.3842549,3.35504587 C50.3002812,3.08073394 50.2373008,2.7853211 50.2373008,2.46880734 C50.2373008,2.13119266 50.2792877,1.83577982 50.3842549,1.54036697 C50.4892221,1.24495413 50.6361762,0.991743119 50.8251172,0.759633028 C51.0140581,0.527522936 51.2659794,0.358715596 51.6018744,0.211009174 C51.916776,0.0844036697 52.2736645,0.0211009174 52.6935333,0.0211009174 C53.3653233,0.0211009174 53.9321462,0.253211009 54.3940019,0.73853211 L53.7641987,1.37155963 L53.7641987,1.37155963 Z"></path>
                                <path d="M58.8236176,3.96697248 L56.4723524,3.96697248 L56.1364574,4.74770642 L55.0447985,4.74770642 L57.1021556,0.168807339 L58.2148079,0.168807339 L60.2721649,4.74770642 L59.1595127,4.74770642 L58.8236176,3.96697248 L58.8236176,3.96697248 Z M57.647985,1.20275229 L56.8502343,3.05963303 L58.4247423,3.05963303 L57.647985,1.20275229 L57.647985,1.20275229 Z"></path>
                                <path d="M65.0166823,1.56146789 L63.6101218,3.33394495 L63.4211809,3.33394495 L62.0566073,1.54036697 L62.0566073,4.74770642 L61.0489222,4.74770642 L61.0489222,0.168807339 L62.2245548,0.168807339 L63.5471415,1.9412844 L64.8907216,0.168807339 L66.0453608,0.168807339 L66.0453608,4.74770642 L65.0376757,4.74770642 L65.0376757,1.56146789 L65.0166823,1.56146789 Z"></path>
                                <path d="M70.8108716,4.74770642 L67.3259606,4.74770642 L67.3259606,0.168807339 L70.7059044,0.168807339 L70.7059044,1.09724771 L68.3126523,1.09724771 L68.3126523,1.98348624 L70.5589503,1.98348624 L70.5589503,2.89082569 L68.3126523,2.89082569 L68.3126523,3.81926606 L70.7898782,3.81926606 L70.7898782,4.74770642 L70.8108716,4.74770642 Z"></path>
                                <path d="M74.6106842,1.26605505 C74.4847235,1.13944954 74.3377694,1.03394495 74.1278351,0.970642202 C73.9388941,0.90733945 73.7499531,0.865137615 73.5400187,0.865137615 C73.3090909,0.865137615 73.12015,0.90733945 72.9522024,1.01284404 C72.7842549,1.11834862 72.7212746,1.22385321 72.7212746,1.37155963 C72.7212746,1.56146789 72.8052484,1.68807339 72.9522024,1.77247706 C73.12015,1.83577982 73.3510778,1.89908257 73.7079663,1.92018349 C74.8835989,2.02568807 75.4714152,2.51100917 75.4714152,3.41834862 C75.4714152,3.73486239 75.3874414,4.00917431 75.1985005,4.2412844 C75.0095595,4.4733945 74.7786317,4.64220183 74.4847235,4.7266055 C74.2118088,4.83211009 73.8969072,4.87431193 73.5400187,4.87431193 C73.12015,4.87431193 72.7212746,4.78990826 72.3643861,4.64220183 C72.0074977,4.4733945 71.7345829,4.2412844 71.545642,3.92477064 L72.1544517,3.29174312 C72.3223993,3.50275229 72.5323336,3.67155963 72.7842549,3.77706422 C73.0361762,3.88256881 73.2880975,3.94587156 73.5400187,3.94587156 C73.8129335,3.94587156 74.0228679,3.90366972 74.1908154,3.79816514 C74.3587629,3.69266055 74.4427366,3.56605505 74.4427366,3.39724771 C74.4427366,3.20733945 74.3797563,3.05963303 74.2328022,2.97522936 C74.0858482,2.86972477 73.8549203,2.80642202 73.5400187,2.7853211 C73.267104,2.76422018 73.0361762,2.72201835 72.8472352,2.67981651 C72.6582943,2.63761468 72.4693533,2.55321101 72.2804124,2.44770642 C72.0914714,2.34220183 71.9655108,2.21559633 71.8605436,2.02568807 C71.7765698,1.83577982 71.7135895,1.62477064 71.7345829,1.37155963 C71.7345829,0.928440367 71.9235239,0.590825688 72.2594189,0.337614679 C72.6163074,0.0844036697 73.0361762,-0.0422018349 73.5400187,-0.0422018349 C73.9179007,-0.0422018349 74.2328022,2.42028619e-14 74.505717,0.105504587 C74.7786317,0.211009174 75.0095595,0.400917431 75.2404873,0.65412844 L74.6106842,1.26605505 L74.6106842,1.26605505 Z"></path>
                            </g>
                            <path d="M12.7220244,12.8715596 C11.3364574,14.2431193 9.552015,14.9394495 7.34770384,14.9394495 C6.04611059,14.9394495 4.91246485,14.7495413 3.94676664,14.3486239 C2.96007498,13.9477064 2.18331771,13.4201835 1.61649485,12.7238532 C1.02867854,12.0275229 0.608809747,11.2678899 0.314901593,10.4238532 C0.0209934396,9.57981651 -0.104967198,8.65137615 -0.104967198,7.65963303 C-0.104967198,6.73119266 0.0419868791,5.82385321 0.335895033,4.9587156 C0.629803187,4.09357798 1.09165886,3.29174312 1.67947516,2.57431193 C2.26729147,1.85688073 3.06504217,1.26605505 4.03074039,0.844036697 C5.01743205,0.422018349 6.10909091,0.211009174 7.34770384,0.211009174 C9.30009372,0.211009174 11.0215558,0.928440367 12.4910965,2.38440367 L10.5387067,4.32568807 C9.76194939,3.54495413 8.69128397,3.16513761 7.36869728,3.16513761 C6.61293346,3.16513761 5.94114339,3.31284404 5.35332709,3.58715596 C4.76551078,3.86146789 4.30365511,4.22018349 3.96776007,4.66330275 C3.63186504,5.10642202 3.37994377,5.59174312 3.21199625,6.11926606 C3.04404873,6.62568807 2.98106842,7.15321101 2.98106842,7.70183486 C2.98106842,8.25045872 3.06504217,8.77798165 3.21199625,9.26330275 C3.37994377,9.74862385 3.6108716,10.212844 3.94676664,10.6559633 C4.28266167,11.0990826 4.7235239,11.4366972 5.31134021,11.7110092 C5.89915651,11.9642202 6.59194002,12.1119266 7.36869728,12.1119266 C7.95651359,12.1119266 8.56532334,11.9853211 9.2371134,11.7321101 C9.88791003,11.4788991 10.412746,11.1623853 10.8116214,10.7614679 L12.7220244,12.8715596 L12.7220244,12.8715596 Z" id="Shape" fill="#242424"></path>
                            <path d="M25.0031865,12.1752294 L17.8234302,12.1752294 L16.7947516,14.5807339 L13.4358013,14.5807339 L19.7128397,0.527522936 L23.1137769,0.527522936 L29.3908154,14.5807339 L26.0108716,14.5807339 L25.0031865,12.1752294 L25.0031865,12.1752294 Z M21.4133083,3.69266055 L18.9990628,9.38990826 L23.8065604,9.38990826 L21.4133083,3.69266055 L21.4133083,3.69266055 Z" id="Shape" fill="#242424"></path>
                            <path d="M39.4886598,3.92477064 C39.1107779,3.54495413 38.6279288,3.24954128 38.0401125,3.03853211 C37.4522962,2.82752294 36.8434864,2.74311927 36.2556701,2.74311927 C35.5418932,2.74311927 34.9540769,2.89082569 34.4712277,3.16513761 C33.9883786,3.43944954 33.7574508,3.81926606 33.7574508,4.28348624 C33.7574508,4.87431193 34.0093721,5.27522936 34.4922212,5.50733945 C34.9750703,5.71834862 35.7518276,5.88715596 36.7805061,5.97155963 C40.3703843,6.28807339 42.1548266,7.80733945 42.1548266,10.5293578 C42.1548266,11.5211009 41.8609185,12.3651376 41.2940956,13.0614679 C40.7272727,13.7577982 39.9925023,14.2642202 39.1317713,14.559633 C38.2710403,14.8550459 37.3053421,15.0238532 36.2556701,15.0238532 C34.9750703,15.0449541 33.7784442,14.7917431 32.6657919,14.306422 C31.5531396,13.8211009 30.7134021,13.0825688 30.1465792,12.1330275 L32.0149953,10.1917431 C32.5188379,10.8458716 33.1696345,11.3522936 33.9463918,11.6688073 C34.723149,12.006422 35.5208997,12.1752294 36.2766635,12.1752294 C37.0954077,12.1752294 37.7671978,12.0275229 38.2920337,11.7110092 C38.8168697,11.3944954 39.068791,10.993578 39.068791,10.5082569 C39.0897844,9.93853211 38.8588566,9.49541284 38.3970009,9.2 C37.9351453,8.90458716 37.2213683,8.7146789 36.2556701,8.63027523 C35.4159325,8.54587156 34.7021556,8.44036697 34.1143393,8.29266055 C33.526523,8.14495413 32.9387067,7.91284404 32.3928772,7.61743119 C31.8260544,7.30091743 31.4061856,6.87889908 31.1332709,6.33027523 C30.8393627,5.78165138 30.7134021,5.10642202 30.7134021,4.30458716 C30.7343955,2.97522936 31.2592315,1.92018349 32.3508903,1.16055046 C33.4215558,0.400917431 34.723149,0.0211009174 36.2556701,0.0211009174 C37.4103093,0.0211009174 38.3760075,0.189908257 39.1947516,0.506422018 C40.0134958,0.82293578 40.7692596,1.39266055 41.4620431,2.19449541 L39.4886598,3.92477064 L39.4886598,3.92477064 Z" id="Shape" fill="#242424"></path>
                            <path d="M47.8230553,3.31284404 L43.5613871,3.31284404 L43.5613871,0.527522936 L55.1707591,0.527522936 L55.1707591,3.31284404 L50.9090909,3.31284404 L50.9090909,14.5807339 L47.8020619,14.5807339 L47.8020619,3.31284404 L47.8230553,3.31284404 Z" id="Shape" fill="#242424"></path>
                            <path d="M60.6920337,0.527522936 L60.6920337,11.7110092 L67.6828491,11.7110092 L67.6828491,14.5807339 L57.5640112,14.5807339 L57.5640112,0.527522936 L60.6920337,0.527522936 L60.6920337,0.527522936 Z" id="Shape" fill="#242424"></path>
                            <path d="M80.7197751,14.5807339 L70.0761012,14.5807339 L70.0761012,0.527522936 L80.4468604,0.527522936 L80.4468604,3.39724771 L73.1411434,3.39724771 L73.1411434,6.11926606 L80.0269916,6.11926606 L80.0269916,8.86238532 L73.1411434,8.86238532 L73.1411434,11.6899083 L80.7407685,11.6899083 L80.7407685,14.5807339 L80.7197751,14.5807339 Z" id="Shape" fill="#242424"></path>
                            <path d="M101.335333,14.5807339 L97.8714152,14.5807339 L94.3025305,9.95963303 L92.035239,9.95963303 L92.035239,14.5807339 L88.9072165,14.5807339 L88.9072165,0.527522936 L95.5411434,0.527522936 C97.1576382,0.527522936 98.4172446,0.991743119 99.340956,1.92018349 C100.264667,2.84862385 100.726523,3.96697248 100.726523,5.27522936 C100.70553,6.33027523 100.474602,7.21651376 100.033739,7.93394495 C99.5718838,8.67247706 98.7321462,9.24220183 97.4935333,9.6853211 L101.335333,14.3486239 L101.335333,14.5807339 L101.335333,14.5807339 Z M92.035239,3.22844037 L92.035239,7.32201835 L95.5831303,7.32201835 C96.2549203,7.32201835 96.7587629,7.11100917 97.1156514,6.71009174 C97.4725398,6.30917431 97.6404873,5.84495413 97.6404873,5.33853211 C97.6194939,4.78990826 97.430553,4.30458716 97.0736645,3.86146789 C96.716776,3.41834862 96.19194,3.20733945 95.5411434,3.20733945 L92.035239,3.20733945 L92.035239,3.22844037 Z" id="Shape" fill="#242424"></path>
                            <path d="M113.826429,12.1752294 L106.646673,12.1752294 L105.617994,14.5807339 L102.259044,14.5807339 L108.536082,0.527522936 L111.93702,0.527522936 L118.214058,14.5807339 L114.834114,14.5807339 L113.826429,12.1752294 L113.826429,12.1752294 Z M110.236551,3.69266055 L107.822306,9.38990826 L112.629803,9.38990826 L110.236551,3.69266055 L110.236551,3.69266055 Z" id="Shape" fill="#242424"></path>
                            <path d="M120.187441,14.5807339 L120.187441,0.527522936 L123.29447,0.527522936 L123.29447,14.5807339 L120.187441,14.5807339 L120.187441,14.5807339 Z" id="Shape" fill="#242424"></path>
                            <path d="M132.636551,0.527522936 C134.190066,0.527522936 135.491659,0.865137615 136.562324,1.51926606 C137.63299,2.1733945 138.409747,3.01743119 138.871603,4.03027523 C139.354452,5.04311927 139.58538,6.20366972 139.58538,7.46972477 C139.58538,8.41926606 139.438425,9.30550459 139.186504,10.1495413 C138.91359,10.9724771 138.514714,11.7321101 137.968885,12.4073394 C137.423055,13.0825688 136.709278,13.6100917 135.785567,14.0110092 C134.882849,14.4119266 133.833177,14.6018349 132.636551,14.6018349 L126.905342,14.6018349 L126.905342,0.548623853 L132.636551,0.548623853 L132.636551,0.527522936 Z M129.991378,11.6899083 L132.657545,11.6899083 C133.371321,11.6899083 134.001125,11.5633028 134.546954,11.3100917 C135.092784,11.0568807 135.491659,10.7192661 135.764574,10.2972477 C136.037488,9.87522936 136.247423,9.41100917 136.373383,8.94678899 C136.499344,8.46146789 136.562324,7.95504587 136.562324,7.40642202 C136.562324,6.24587156 136.247423,5.29633028 135.638613,4.51559633 C135.00881,3.73486239 134.043112,3.35504587 132.699531,3.35504587 L130.033365,3.35504587 L130.033365,11.6899083 L129.991378,11.6899083 Z" id="Shape" fill="#242424"></path>
                            <path d="M153.105155,14.5807339 L142.461481,14.5807339 L142.461481,0.527522936 L152.83224,0.527522936 L152.83224,3.39724771 L145.526523,3.39724771 L145.526523,6.11926606 L152.412371,6.11926606 L152.412371,8.86238532 L145.526523,8.86238532 L145.526523,11.6899083 L153.126148,11.6899083 L153.126148,14.5807339 L153.105155,14.5807339 Z" id="Shape" fill="#242424"></path>
                            <path d="M168.493346,14.5807339 L165.029428,14.5807339 L161.460544,9.95963303 L159.193252,9.95963303 L159.193252,14.5807339 L156.06523,14.5807339 L156.06523,0.527522936 L162.699157,0.527522936 C164.315651,0.527522936 165.575258,0.991743119 166.498969,1.92018349 C167.42268,2.84862385 167.884536,3.96697248 167.884536,5.27522936 C167.863543,6.33027523 167.632615,7.21651376 167.191753,7.93394495 C166.729897,8.67247706 165.890159,9.24220183 164.651546,9.6853211 L168.493346,14.3486239 L168.493346,14.5807339 L168.493346,14.5807339 Z M159.193252,3.22844037 L159.193252,7.32201835 L162.741143,7.32201835 C163.412933,7.32201835 163.916776,7.11100917 164.273664,6.71009174 C164.630553,6.30917431 164.7985,5.84495413 164.7985,5.33853211 C164.777507,4.78990826 164.588566,4.30458716 164.231678,3.86146789 C163.874789,3.41834862 163.349953,3.20733945 162.699157,3.20733945 L159.193252,3.20733945 L159.193252,3.22844037 Z" id="Shape" fill="#242424"></path>
                            <path d="M179.325961,3.92477064 C178.948079,3.54495413 178.46523,3.24954128 177.877413,3.03853211 C177.289597,2.82752294 176.680787,2.74311927 176.092971,2.74311927 C175.379194,2.74311927 174.791378,2.89082569 174.308529,3.16513761 C173.825679,3.43944954 173.594752,3.81926606 173.594752,4.28348624 C173.594752,4.87431193 173.846673,5.27522936 174.329522,5.50733945 C174.812371,5.71834862 175.589128,5.88715596 176.617807,5.97155963 C180.207685,6.28807339 181.992127,7.80733945 181.992127,10.5293578 C181.992127,11.5211009 181.698219,12.3651376 181.131396,13.0614679 C180.564574,13.7577982 179.829803,14.2642202 178.969072,14.559633 C178.108341,14.8550459 177.142643,15.0238532 176.092971,15.0238532 C174.812371,15.0449541 173.615745,14.7917431 172.503093,14.306422 C171.39044,13.8211009 170.550703,13.0825688 169.98388,12.1330275 L171.852296,10.1917431 C172.356139,10.8458716 173.006935,11.3522936 173.783693,11.6688073 C174.56045,12.006422 175.358201,12.1752294 176.113964,12.1752294 C176.932709,12.1752294 177.604499,12.0275229 178.129335,11.7110092 C178.654171,11.3944954 178.906092,10.993578 178.906092,10.5082569 C178.927085,9.93853211 178.696157,9.49541284 178.234302,9.2 C177.772446,8.90458716 177.058669,8.7146789 176.092971,8.63027523 C175.253233,8.54587156 174.539456,8.44036697 173.95164,8.29266055 C173.363824,8.14495413 172.776007,7.91284404 172.230178,7.61743119 C171.663355,7.30091743 171.243486,6.87889908 170.970572,6.33027523 C170.676664,5.78165138 170.550703,5.10642202 170.550703,4.30458716 C170.571696,2.97522936 171.096532,1.92018349 172.188191,1.16055046 C173.258857,0.400917431 174.56045,0.0211009174 176.092971,0.0211009174 C177.24761,0.0211009174 178.213308,0.189908257 179.032052,0.506422018 C179.850797,0.82293578 180.60656,1.39266055 181.299344,2.19449541 L179.325961,3.92477064 L179.325961,3.92477064 Z" id="Shape" fill="#242424"></path>
                        </g>
                        <g id="Group" transform="translate(94.470478, 32.495413)">
                            <rect id="Rectangle-path" fill="#EF4545" x="5.45829428" y="8.44036697" width="20.4266167" height="24.2027523"></rect>
                            <path d="M20.5735708,19.433945 L20.5735708,26.6293578 L10.5806935,26.6293578 L10.5806935,19.433945 C10.5806935,16.8807339 12.4910965,14.7495413 14.947329,14.4541284 L16.1859419,14.4541284 C18.6841612,14.7495413 20.5735708,16.859633 20.5735708,19.433945 L20.5735708,19.433945 Z" id="Shape" fill="#242424"></path>
                            <path d="M10.601687,26.6293578 L25.8009372,32.6431193 L25.8009372,20.5311927 L17.529522,14.812844 L10.601687,26.6293578 Z" id="Shape" opacity="0.2" fill="#242424"></path>
                            <path d="M26.8925961,3.16513761 L26.8925961,0.0633027523 L31.2382381,0.0633027523 L31.2382381,6.26697248 L-0.0419868791,6.26697248 L-0.0419868791,0.0633027523 L4.28266167,0.0633027523 L4.28266167,3.16513761 L13.4148079,3.16513761 L13.4148079,0.0633027523 L17.7604499,0.0633027523 L17.7604499,3.16513761 L26.8925961,3.16513761 Z" id="Shape" fill="#EF4545"></path>
                        </g>
                    </g>
                </g>
            </g>
        </g>
    </g>
</svg>